<?xml version="1.0" encoding="UTF-8"?>
<svg id="Capa_1" data-name="Capa 1" xmlns="http://www.w3.org/2000/svg" viewBox="0 0 333 70">
  <defs>
    <style>
      .cls-1 {
        fill: #fff;
      }

      .cls-2 {
        fill: #cbfe01;
      }
    </style>
  </defs>
  <g>
    <path class="cls-2" d="M202.74,34.28c-.98-1.01-2.22-1.51-3.73-1.51-1.69,0-3.06.52-4.11,1.56-1.05,1.04-1.58,2.38-1.58,4.04v14.09h-5.51v-24.35h5.51v2.67c.77-1.04,1.75-1.84,2.93-2.4,1.18-.56,2.47-.84,3.87-.84,1.87,0,3.52.44,4.98,1.33,1.45.89,2.58,2.14,3.4,3.75.81,1.62,1.22,3.46,1.22,5.53v14.31h-5.51v-14.26c0-1.6-.49-2.9-1.47-3.91Z"/>
    <path class="cls-2" d="M218.65,51.37c-1.96-1.14-3.5-2.69-4.64-4.64-1.14-1.96-1.71-4.1-1.71-6.44s.57-4.49,1.71-6.44c1.14-1.96,2.69-3.5,4.64-4.64,1.96-1.14,4.12-1.71,6.49-1.71s4.36.57,6.24,1.71c1.88,1.14,3.37,2.69,4.47,4.64,1.1,1.96,1.64,4.1,1.64,6.44,0,.68-.09,1.44-.27,2.27h-19.24c.44,1.63,1.33,2.95,2.64,3.95,1.32,1.01,2.82,1.51,4.51,1.51,1.27,0,2.42-.3,3.44-.89,1.02-.59,1.77-1.41,2.24-2.44h5.95c-.65,2.52-2.05,4.55-4.2,6.09-2.15,1.54-4.63,2.31-7.44,2.31-2.37,0-4.53-.57-6.49-1.71ZM231.85,38.06c-.42-1.63-1.24-2.95-2.47-3.96-1.23-1.01-2.64-1.51-4.24-1.51-1.72,0-3.23.5-4.53,1.51-1.3,1.01-2.18,2.33-2.62,3.96h13.86Z"/>
    <path class="cls-2" d="M244.91,40.1l-7.78-12h6.04l5.47,8.53,5.42-8.53h6.04l-7.78,12,8.04,12.35h-6.04l-5.69-8.8-5.82,8.8h-5.91l8-12.35Z"/>
    <path class="cls-2" d="M267.34,51.68c-1.7-.93-3.02-2.25-3.95-3.96-.93-1.7-1.4-3.67-1.4-5.89v-13.73h5.51v13.69c0,1.75.53,3.16,1.58,4.24,1.05,1.08,2.44,1.62,4.15,1.62,1.63,0,2.96-.55,3.98-1.64s1.53-2.5,1.53-4.22v-13.69h5.51v13.73c0,2.22-.47,4.18-1.4,5.87-.93,1.69-2.24,3.01-3.91,3.96-1.67.95-3.59,1.42-5.75,1.42s-4.14-.47-5.84-1.4Z"/>
    <path class="cls-2" d="M287.57,52.15v-5.55c2.31.92,4.13,1.38,5.47,1.38.83,0,1.49-.19,1.98-.58.49-.38.73-.99.73-1.82,0-.62-.26-1.18-.78-1.69-.52-.5-1.36-1.16-2.51-1.95-1.66-1.13-2.95-2.21-3.87-3.27-.92-1.05-1.38-2.35-1.38-3.89,0-2.37.77-4.16,2.31-5.38,1.54-1.21,3.51-1.82,5.91-1.82,1.33,0,2.76.24,4.27.71v5.47c-.71-.39-1.44-.69-2.2-.91s-1.44-.33-2.07-.33c-.83,0-1.5.17-2.02.51-.52.34-.78.85-.78,1.53,0,.5.24.99.71,1.47.47.47,1.24,1.11,2.31,1.91,1.16.86,2.1,1.62,2.82,2.29.73.67,1.36,1.47,1.89,2.4.53.93.8,1.96.8,3.09,0,2.4-.72,4.23-2.15,5.49-1.44,1.26-3.43,1.89-5.98,1.89-1.72,0-3.54-.31-5.47-.93Z"/>
  </g>
  <g>
    <path class="cls-1" d="M141.8,50.16c-.96.96-2.06,1.69-3.33,2.19s-2.65.76-4.17.76c-2.19,0-4.17-.53-5.94-1.6-1.77-1.07-3.16-2.53-4.17-4.38-1.01-1.85-1.52-3.9-1.52-6.15s.51-4.3,1.52-6.15c1.01-1.85,2.4-3.31,4.17-4.38,1.77-1.07,3.75-1.6,5.94-1.6,1.52,0,2.91.25,4.17.76s2.37,1.24,3.33,2.19v-10.36h5.14v31.09h-5.14v-2.36ZM138.34,47.17c1.04-.62,1.86-1.47,2.46-2.55.6-1.08.91-2.3.91-3.64s-.3-2.56-.91-3.64c-.6-1.08-1.43-1.93-2.46-2.55-1.04-.62-2.2-.93-3.5-.93s-2.46.31-3.52.93c-1.05.62-1.88,1.47-2.49,2.55-.6,1.08-.91,2.3-.91,3.64s.3,2.56.91,3.64c.6,1.08,1.43,1.93,2.49,2.55,1.05.62,2.23.93,3.52.93s2.46-.31,3.5-.93Z"/>
    <path class="cls-1" d="M155.87,51.49c-1.85-1.08-3.32-2.55-4.4-4.4-1.08-1.85-1.62-3.89-1.62-6.11s.54-4.25,1.62-6.11c1.08-1.85,2.55-3.32,4.4-4.4,1.85-1.08,3.9-1.62,6.15-1.62s4.14.54,5.92,1.62c1.78,1.08,3.19,2.55,4.23,4.4,1.04,1.85,1.56,3.89,1.56,6.11,0,.65-.08,1.36-.25,2.15h-18.24c.42,1.54,1.26,2.79,2.51,3.75,1.25.96,2.67,1.43,4.28,1.43,1.21,0,2.3-.28,3.26-.84.97-.56,1.68-1.33,2.13-2.32h5.65c-.62,2.39-1.95,4.31-3.98,5.77-2.04,1.46-4.39,2.19-7.06,2.19-2.25,0-4.3-.54-6.15-1.62ZM168.38,38.87c-.39-1.54-1.17-2.79-2.34-3.75-1.17-.95-2.51-1.43-4.02-1.43-1.63,0-3.06.48-4.3,1.43-1.24.95-2.06,2.21-2.49,3.75h13.14Z"/>
    <path class="cls-1" d="M176.55,21.43h5.22v31.09h-5.22v-31.09Z"/>
    <path class="cls-1" d="M114.5,29.43v1.44c-1.9-1.33-4.34-2.13-7.32-2.08-4.75.09-5.72,2.12-9.06,4.24-4.49,2.84-6.81-2.01-10.53-3.39-2.88-1.07-6.03-1.05-8.81.09-1.35.5-2.55,1.21-3.58,2.13v-2.35h-5.73v30.21h5.78v-9.57c1.17,1.05,2.63,1.79,4.21,2.27.05.02.09.04.14.07,3.24.97,6.7.61,9.81-1.15,2.95-1.66,4.08-4.66,8.17-2.77,2.98,1.37,3.81,3.95,8.19,4.39,3.65.37,6.55-.45,8.74-1.95v1.23h5.12v-22.79h-5.12ZM93.91,42.79c-5.29.62-6.87,6.23-12.6,4.7-.54-.15-1.19-.4-1.81-.71-1.16-.67-2.74-1.84-3.35-2.81-.67-1.08-.85-1.62-.85-2.96s.34-2.55,1.01-3.63c.67-1.08,1.59-1.92,2.75-2.54.67-.47,1.68-.69,2.68-.78,6.84-.61,7.72,6.78,16.08,4.82,3.7-.87,5.5-4.35,8.65-4.63,9.68-.88,10.34,12.5,1.88,13.48-5.59.65-7.04-5.79-14.44-4.92Z"/>
  </g>
</svg>