<?xml version="1.0" encoding="UTF-8"?>
<svg id="Capa_1" data-name="Capa 1" xmlns="http://www.w3.org/2000/svg" viewBox="0 0 179 147">
  <defs>
    <style>
      .cls-1 {
        fill: #fff;
      }

      .cls-2 {
        fill: #cbfe01;
      }
    </style>
  </defs>
  <g>
    <path class="cls-2" d="M81.92,95.59c-.81-.83-1.84-1.25-3.09-1.25-1.4,0-2.54.43-3.41,1.29-.87.86-1.31,1.98-1.31,3.35v11.68h-4.57v-20.18h4.57v2.21c.64-.86,1.45-1.52,2.43-1.99.98-.47,2.05-.7,3.2-.7,1.55,0,2.92.37,4.13,1.11,1.2.74,2.14,1.77,2.82,3.11.68,1.34,1.01,2.87,1.01,4.59v11.86h-4.57v-11.82c0-1.33-.41-2.41-1.22-3.24Z"/>
    <path class="cls-2" d="M95.1,109.76c-1.62-.95-2.9-2.23-3.85-3.85-.95-1.62-1.42-3.4-1.42-5.34s.47-3.72,1.42-5.34c.94-1.62,2.23-2.9,3.85-3.85,1.62-.94,3.41-1.42,5.38-1.42s3.62.47,5.17,1.42c1.56.95,2.79,2.23,3.7,3.85.91,1.62,1.36,3.4,1.36,5.34,0,.56-.07,1.19-.22,1.88h-15.95c.37,1.35,1.1,2.44,2.19,3.28,1.09.84,2.34,1.25,3.74,1.25,1.06,0,2.01-.25,2.85-.74.85-.49,1.47-1.17,1.86-2.03h4.94c-.54,2.09-1.7,3.77-3.48,5.05-1.78,1.28-3.84,1.92-6.17,1.92-1.96,0-3.76-.47-5.38-1.42ZM106.04,98.72c-.34-1.35-1.03-2.44-2.04-3.28-1.02-.83-2.19-1.25-3.52-1.25-1.42,0-2.68.42-3.76,1.25-1.08.83-1.8,1.93-2.17,3.28h11.49Z"/>
    <path class="cls-2" d="M116.87,100.42l-6.45-9.94h5.01l4.53,7.07,4.49-7.07h5.01l-6.45,9.94,6.67,10.24h-5.01l-4.71-7.29-4.82,7.29h-4.9l6.63-10.24Z"/>
    <path class="cls-2" d="M135.46,110.01c-1.41-.77-2.5-1.87-3.28-3.28-.77-1.41-1.16-3.04-1.16-4.88v-11.38h4.57v11.34c0,1.45.44,2.62,1.31,3.52.87.9,2.02,1.34,3.44,1.34,1.35,0,2.45-.45,3.3-1.36.85-.91,1.27-2.07,1.27-3.5v-11.34h4.57v11.38c0,1.84-.39,3.46-1.16,4.86-.77,1.4-1.85,2.49-3.24,3.28-1.39.79-2.98,1.18-4.77,1.18s-3.43-.39-4.84-1.16Z"/>
    <path class="cls-2" d="M152.23,110.4v-4.6c1.92.76,3.43,1.14,4.53,1.14.69,0,1.23-.16,1.64-.48.41-.32.61-.82.61-1.51,0-.52-.22-.98-.64-1.4-.43-.42-1.12-.96-2.08-1.62-1.38-.93-2.44-1.84-3.2-2.71-.76-.87-1.14-1.95-1.14-3.22,0-1.96.64-3.45,1.92-4.46,1.28-1.01,2.91-1.51,4.9-1.51,1.1,0,2.28.2,3.54.59v4.53c-.59-.32-1.2-.57-1.82-.76s-1.2-.28-1.71-.28c-.69,0-1.25.14-1.68.42-.43.28-.64.71-.64,1.27,0,.42.2.82.59,1.22.39.39,1.03.92,1.92,1.58.96.71,1.74,1.34,2.34,1.9.6.55,1.12,1.22,1.57,1.99.44.77.66,1.63.66,2.56,0,1.99-.6,3.51-1.79,4.55-1.19,1.04-2.84,1.57-4.95,1.57-1.42,0-2.93-.26-4.53-.77Z"/>
  </g>
  <g>
    <path class="cls-1" d="M83.11,57.24c-2.27-1.59-5.18-2.55-8.75-2.48-5.68.11-6.84,2.54-10.82,5.06-5.37,3.4-8.14-2.4-12.59-4.05-3.44-1.28-7.21-1.26-10.53.11-1.62.6-3.04,1.44-4.27,2.54v-2.81h-6.85v36.11h6.91v-11.43c1.4,1.25,3.14,2.14,5.03,2.71.05.03.11.05.16.08,3.87,1.16,8.01.72,11.73-1.38,3.52-1.99,4.88-5.57,9.76-3.31,3.56,1.64,4.55,4.72,9.78,5.24,4.36.44,7.83-.54,10.44-2.33v1.46h6.11v-27.24h-6.11v1.72ZM58.51,71.5c-6.32.74-8.21,7.45-15.06,5.61-.65-.17-1.42-.48-2.17-.85-1.38-.8-3.28-2.2-4.01-3.36-.81-1.29-1.02-1.94-1.02-3.54s.4-3.05,1.21-4.34c.8-1.29,1.9-2.3,3.28-3.03.8-.56,2.01-.82,3.2-.93,8.18-.73,9.23,8.1,19.22,5.76,4.43-1.04,6.57-5.2,10.34-5.54,11.57-1.05,12.36,14.94,2.25,16.1-6.67.77-8.41-6.92-17.25-5.88Z"/>
    <path class="cls-1" d="M115.73,58.36c-1.14-1.14-2.47-2.01-3.98-2.62s-3.17-.91-4.98-.91c-2.62,0-4.98.64-7.1,1.91-2.11,1.28-3.78,3.02-4.98,5.24-1.21,2.22-1.81,4.67-1.81,7.35s.6,5.14,1.81,7.35c1.21,2.22,2.87,3.96,4.98,5.24,2.11,1.28,4.48,1.91,7.1,1.91,1.81,0,3.47-.3,4.98-.91s2.84-1.48,3.98-2.62v2.82h6.14v-37.15h-6.14v12.38ZM114.54,73.69c-.72,1.29-1.7,2.31-2.95,3.04-1.24.74-2.63,1.11-4.18,1.11s-2.95-.37-4.2-1.11c-1.26-.74-2.25-1.75-2.97-3.04-.72-1.29-1.08-2.74-1.08-4.35s.36-3.06,1.08-4.35c.72-1.29,1.71-2.31,2.97-3.05,1.26-.74,2.66-1.11,4.2-1.11s2.94.37,4.18,1.11c1.24.74,2.22,1.75,2.95,3.05.72,1.29,1.08,2.74,1.08,4.35s-.36,3.06-1.08,4.35Z"/>
    <path class="cls-1" d="M146.96,56.77c-2.13-1.29-4.49-1.94-7.07-1.94s-5.14.65-7.35,1.94c-2.22,1.29-3.97,3.04-5.26,5.26-1.29,2.22-1.94,4.65-1.94,7.3s.65,5.08,1.94,7.3c1.29,2.22,3.05,3.97,5.26,5.26,2.21,1.29,4.66,1.94,7.35,1.94,3.19,0,6-.87,8.43-2.62,2.43-1.74,4.02-4.04,4.76-6.9h-6.75c-.54,1.18-1.38,2.1-2.54,2.77-1.16.67-2.46,1.01-3.9,1.01-1.91,0-3.62-.57-5.11-1.71-1.49-1.14-2.49-2.63-3-4.48h21.8c.2-.94.3-1.8.3-2.57,0-2.65-.62-5.08-1.86-7.3-1.24-2.22-2.93-3.97-5.06-5.26ZM131.78,66.81c.5-1.85,1.49-3.34,2.97-4.48,1.48-1.14,3.19-1.71,5.14-1.71,1.81,0,3.41.57,4.81,1.71,1.39,1.14,2.32,2.64,2.79,4.48h-15.71Z"/>
    <rect class="cls-1" x="157.26" y="45.97" width="6.24" height="37.15"/>
  </g>
</svg>